<svg width="18" height="22" viewBox="0 0 18 22" fill="none" xmlns="http://www.w3.org/2000/svg">
<path fill-rule="evenodd" clip-rule="evenodd" d="M9 0C8.44771 0 8 0.447715 8 1V2.07089C4.60771 2.55612 2 5.47353 2 9V16H1C0.447715 16 0 16.4477 0 17C0 17.5523 0.447716 18 1 18H17C17.5523 18 18 17.5523 18 17C18 16.4477 17.5523 16 17 16H16V9C16 5.47353 13.3923 2.55612 10 2.07089V1C10 0.447715 9.55229 0 9 0ZM14 9V16H4V9C4 6.23858 6.23858 4 9 4C11.7614 4 14 6.23858 14 9Z" fill="white"/>
<path d="M9 22C7.89543 22 7 21.1046 7 20H11C11 21.1046 10.1046 22 9 22Z" fill="white"/>
</svg>
