<svg width="20" height="20" viewBox="0 0 20 20" fill="none" xmlns="http://www.w3.org/2000/svg">
<path d="M10 0.25C4.624 0.25 0.25 4.624 0.25 10C0.25 15.376 4.624 19.75 10 19.75C15.376 19.75 19.75 15.376 19.75 10C19.75 4.624 15.376 0.25 10 0.25ZM10 18.25C5.451 18.25 1.75 14.549 1.75 10C1.75 5.451 5.451 1.75 10 1.75C14.549 1.75 18.25 5.451 18.25 10C18.25 14.549 14.549 18.25 10 18.25ZM12.53 9.46899C12.823 9.76199 12.823 10.237 12.53 10.53L9.53003 13.53C9.38403 13.676 9.192 13.75 9 13.75C8.808 13.75 8.61597 13.677 8.46997 13.53C8.17697 13.237 8.17697 12.762 8.46997 12.469L10.94 9.99902L8.46997 7.52905C8.17697 7.23605 8.17697 6.76102 8.46997 6.46802C8.76297 6.17502 9.23801 6.17502 9.53101 6.46802L12.53 9.46899Z" fill="white"/>
</svg>
