<svg width="319" height="492" viewBox="0 0 319 492" fill="none" xmlns="http://www.w3.org/2000/svg">
<circle cx="94" cy="72" r="5" transform="rotate(180 94 72)" fill="#30D6B0"/>
<circle cx="254.891" cy="469.891" r="5" transform="rotate(-32.0343 254.891 469.891)" fill="#FE8668"/>
<circle cx="199" cy="142" r="5" transform="rotate(180 199 142)" fill="#FE8668"/>
<circle cx="193.891" cy="484.891" r="5" transform="rotate(-32.0343 193.891 484.891)" fill="#30D6B0"/>
<circle cx="76" cy="188" r="5" transform="rotate(180 76 188)" fill="#FDBC1F"/>
<circle cx="239" cy="28" r="5" transform="rotate(180 239 28)" fill="#FDBC1F"/>
<circle cx="25.8908" cy="272.891" r="5" transform="rotate(-32.0343 25.8908 272.891)" fill="#FE8668"/>
<circle cx="311.891" cy="20.8907" r="5" transform="rotate(-32.0343 311.891 20.8907)" fill="#30D6B0"/>
<circle cx="272" cy="284" r="5" transform="rotate(180 272 284)" fill="#30D6B0"/>
<circle cx="5" cy="412" r="5" transform="rotate(180 5 412)" fill="#FDBC1F"/>
<circle cx="129.891" cy="231.891" r="5" transform="rotate(-32.0343 129.891 231.891)" fill="#FFE202"/>
<rect x="91.8032" y="100.161" width="5" height="20" rx="2.5" transform="rotate(45 91.8032 100.161)" fill="#4269F2"/>
<rect x="308.873" y="234.612" width="5" height="20" rx="2.5" transform="rotate(-167.034 308.873 234.612)" fill="#FE8668"/>
<rect x="234.751" y="214.667" width="5" height="20" rx="2.5" transform="rotate(119.962 234.751 214.667)" fill="#FDBC1F"/>
<rect x="289.181" y="423.72" width="5" height="20" rx="2.5" transform="rotate(-92.072 289.181 423.72)" fill="#FDBC1F"/>
<rect x="16.4395" width="5" height="20" rx="2.5" transform="rotate(55.2834 16.4395 0)" fill="#4269F2"/>
<rect x="220.923" y="52.5142" width="5" height="20" rx="2.5" transform="rotate(108.288 220.923 52.5142)" fill="#FFE202"/>
<rect x="138.594" y="23.3496" width="5" height="20" rx="2.5" transform="rotate(-156.751 138.594 23.3496)" fill="#FDBC1F"/>
<rect x="297.924" y="58.0063" width="5" height="20" rx="2.5" transform="rotate(99.8983 297.924 58.0063)" fill="#4269F2"/>
<rect x="29.5618" y="159.438" width="5" height="20" rx="2.5" transform="rotate(99.8983 29.5618 159.438)" fill="#30D6B0"/>
<rect x="77.884" y="251.167" width="5" height="20" rx="2.5" transform="rotate(-112.136 77.884 251.167)" fill="#4269F2"/>
<rect x="84.436" y="430.364" width="5" height="20" rx="2.5" transform="rotate(111.604 84.436 430.364)" fill="#FFE202"/>
<rect x="130.905" y="186.538" width="5" height="20" rx="2.5" transform="rotate(-100.431 130.905 186.538)" fill="#FE8668"/>
</svg>
