<svg width="14" height="16" viewBox="0 0 14 16" fill="none" xmlns="http://www.w3.org/2000/svg">
<path d="M6.98776 0C9.44275 0 11.4181 1.93183 11.4181 4.3168V5.54348C12.796 5.97357 13.8 7.22091 13.8 8.71072V12.6602C13.8 14.5046 12.2709 16 10.3857 16H3.61499C1.72904 16 0.199951 14.5046 0.199951 12.6602V8.71072C0.199951 7.22091 1.20471 5.97357 2.58178 5.54348V4.3168C2.58991 1.93183 4.56528 0 6.98776 0ZM6.99589 9.10742C6.60569 9.10742 6.28865 9.41747 6.28865 9.79907V11.5639C6.28865 11.9535 6.60569 12.2635 6.99589 12.2635C7.39421 12.2635 7.71125 11.9535 7.71125 11.5639V9.79907C7.71125 9.41747 7.39421 9.10742 6.99589 9.10742ZM7.00402 1.39124C5.35381 1.39124 4.0125 2.69502 4.00437 4.3009V5.37096H9.99553V4.3168C9.99553 2.70297 8.65422 1.39124 7.00402 1.39124Z" fill="#4754F0"/>
</svg>
