<svg width="24" height="26" viewBox="0 0 24 26" fill="none" xmlns="http://www.w3.org/2000/svg">
<path d="M1.84619 22.222C1.84619 23.2013 2.2352 24.1404 2.92764 24.8329C3.62009 25.5253 4.55924 25.9143 5.5385 25.9143H10.8462C10.9074 25.9143 10.9661 25.89 11.0094 25.8467C11.0526 25.8035 11.077 25.7448 11.077 25.6836V15.0682C11.077 15.007 11.0526 14.9483 11.0094 14.905C10.9661 14.8617 10.9074 14.8374 10.8462 14.8374H2.30773C2.18532 14.8374 2.06793 14.886 1.98137 14.9726C1.89482 15.0591 1.84619 15.1765 1.84619 15.2989V22.222Z" fill="#4754F0"/>
<path d="M11.0769 12.7605V6.52974H12.9231V12.7605C12.9231 12.8217 12.9474 12.8804 12.9907 12.9237C13.0339 12.967 13.0926 12.9913 13.1538 12.9913H21.2308C21.5452 12.9913 21.8574 12.9376 22.1538 12.8326C22.6933 12.6411 23.1603 12.2874 23.4908 11.82C23.8213 11.3527 23.9992 10.7945 24 10.222V9.29897C24 8.56453 23.7082 7.86016 23.1889 7.34083C22.6696 6.8215 21.9652 6.52974 21.2308 6.52974H18.8919C18.8718 6.52942 18.8522 6.52386 18.8349 6.5136C18.8176 6.50334 18.8033 6.48874 18.7934 6.47126C18.7835 6.45377 18.7783 6.434 18.7784 6.4139C18.7785 6.3938 18.7838 6.37407 18.7938 6.35666C19.328 5.45487 19.5015 4.38448 19.2795 3.36014C19.0575 2.3358 18.4566 1.43323 17.597 0.833412C16.7375 0.233594 15.683 -0.0191287 14.645 0.125919C13.607 0.270967 12.6622 0.803061 12 1.61551C11.3378 0.803061 10.393 0.270967 9.35498 0.125919C8.31695 -0.0191287 7.26246 0.233594 6.40295 0.833412C5.54344 1.43323 4.94245 2.3358 4.7205 3.36014C4.49854 4.38448 4.67202 5.45487 5.20615 6.35666C5.21621 6.37407 5.22154 6.3938 5.22162 6.4139C5.2217 6.434 5.21653 6.45377 5.20662 6.47126C5.19671 6.48874 5.18241 6.50334 5.16512 6.5136C5.14784 6.52386 5.12817 6.52942 5.10808 6.52974H2.76923C2.03479 6.52974 1.33042 6.8215 0.811089 7.34083C0.291757 7.86016 0 8.56453 0 9.29897V10.222C0.000814744 10.7945 0.178675 11.3527 0.509194 11.82C0.839713 12.2874 1.30671 12.6411 1.84615 12.8326C2.14259 12.9376 2.45476 12.9913 2.76923 12.9913H10.8462C10.9074 12.9913 10.9661 12.967 11.0093 12.9237C11.0526 12.8804 11.0769 12.8217 11.0769 12.7605ZM12.9231 4.22205C12.9231 3.76563 13.0584 3.31946 13.312 2.93996C13.5656 2.56047 13.926 2.26468 14.3477 2.09002C14.7693 1.91535 15.2333 1.86965 15.681 1.9587C16.1286 2.04774 16.5398 2.26753 16.8626 2.59026C17.1853 2.913 17.4051 3.32419 17.4941 3.77184C17.5832 4.21949 17.5375 4.68349 17.3628 5.10516C17.1881 5.52684 16.8924 5.88725 16.5129 6.14082C16.1334 6.3944 15.6872 6.52974 15.2308 6.52974H12.9231V4.22205ZM8.60423 1.92013C8.92038 1.89746 9.23781 1.94017 9.53673 2.04559C9.83565 2.15101 10.1097 2.31687 10.3416 2.53284C10.5736 2.74882 10.7587 3.01027 10.8852 3.30089C11.0117 3.59152 11.0769 3.90508 11.0769 4.22205V6.52974H8.76923C8.17251 6.52821 7.59959 6.29559 7.17069 5.88072C6.7418 5.46584 6.49029 4.90095 6.46894 4.30462C6.44759 3.70828 6.65807 3.12686 7.0562 2.68237C7.45433 2.23789 8.00915 1.9649 8.60423 1.9207V1.92013Z" fill="#4754F0"/>
<path d="M13.1539 25.9143H18.4616C19.4408 25.9143 20.38 25.5253 21.0724 24.8329C21.7649 24.1404 22.1539 23.2013 22.1539 22.222V15.2989C22.1539 15.1765 22.1052 15.0591 22.0187 14.9726C21.9321 14.886 21.8147 14.8374 21.6923 14.8374H13.1539C13.0927 14.8374 13.034 14.8617 12.9907 14.905C12.9474 14.9483 12.9231 15.007 12.9231 15.0682V25.6836C12.9231 25.7448 12.9474 25.8035 12.9907 25.8467C13.034 25.89 13.0927 25.9143 13.1539 25.9143Z" fill="#4754F0"/>
</svg>
