<svg width="18" height="16" viewBox="0 0 18 16" fill="none" xmlns="http://www.w3.org/2000/svg">
<path d="M8.28217 0C10.2682 0 11.888 1.592 11.888 3.552V7.384H7.00427C6.65427 7.384 6.37752 7.656 6.37752 8C6.37752 8.336 6.65427 8.616 7.00427 8.616H11.888V12.44C11.888 14.4 10.2682 16 8.26589 16H4.30194C2.30776 16 0.687988 14.408 0.687988 12.448V3.56C0.687988 1.592 2.3159 0 4.31008 0H8.28217ZM13.9201 5.24016C14.1601 4.99216 14.5521 4.99216 14.7921 5.23216L17.1281 7.56016C17.2481 7.68016 17.3121 7.83216 17.3121 8.00016C17.3121 8.16016 17.2481 8.32016 17.1281 8.43216L14.7921 10.7602C14.6721 10.8802 14.5121 10.9442 14.3601 10.9442C14.2001 10.9442 14.0401 10.8802 13.9201 10.7602C13.6801 10.5202 13.6801 10.1282 13.9201 9.88816L15.2001 8.61616H11.8881V7.38416H15.2001L13.9201 6.11216C13.6801 5.87216 13.6801 5.48016 13.9201 5.24016Z" fill="#4754F0"/>
</svg>
