<svg width="14" height="16" viewBox="0 0 14 16" fill="none" xmlns="http://www.w3.org/2000/svg">
<path d="M5.3705 13.7823C5.77043 13.6977 8.20737 13.6977 8.6073 13.7823C8.94919 13.8613 9.31891 14.0458 9.31891 14.4487C9.29903 14.8322 9.07402 15.1722 8.76314 15.3881C8.36003 15.7024 7.88695 15.9014 7.39241 15.9731C7.1189 16.0086 6.85016 16.0094 6.58619 15.9731C6.09085 15.9014 5.61777 15.7024 5.21545 15.3873C4.90378 15.1722 4.67877 14.8322 4.65889 14.4487C4.65889 14.0458 5.02861 13.8613 5.3705 13.7823ZM7.03613 0C8.70025 0 10.4001 0.789615 11.4099 2.09973C12.0651 2.94333 12.3656 3.78612 12.3656 5.09624V5.43706C12.3656 6.44181 12.6312 7.03402 13.2156 7.71647C13.6584 8.21925 13.8 8.86464 13.8 9.56482C13.8 10.2642 13.5702 10.9281 13.1098 11.4671C12.5071 12.1133 11.6572 12.5259 10.7897 12.5976C9.53271 12.7047 8.27488 12.795 7.00035 12.795C5.72503 12.795 4.46799 12.741 3.21095 12.5976C2.34272 12.5259 1.49277 12.1133 0.890884 11.4671C0.430527 10.9281 0.199951 10.2642 0.199951 9.56482C0.199951 8.86464 0.342272 8.21925 0.784342 7.71647C1.38702 7.03402 1.63509 6.44181 1.63509 5.43706V5.09624C1.63509 3.75067 1.97061 2.87082 2.66155 2.00949C3.6888 0.753357 5.33543 0 6.96457 0H7.03613Z" fill="#4754F0"/>
</svg>
