<svg width="20" height="22" viewBox="0 0 20 22" fill="none" xmlns="http://www.w3.org/2000/svg">
<path d="M14.0304 9.03033C14.3233 8.73743 14.3233 8.26256 14.0304 7.96967C13.7375 7.67677 13.2626 7.67677 12.9697 7.96967L9.00004 11.9393L7.53037 10.4697C7.23747 10.1768 6.7626 10.1768 6.46971 10.4697C6.17681 10.7626 6.17681 11.2374 6.46971 11.5303L8.46971 13.5303C8.7626 13.8232 9.23747 13.8232 9.53037 13.5303L14.0304 9.03033Z" fill="#27245D"/>
<path fill-rule="evenodd" clip-rule="evenodd" d="M10 0.249998C7.94126 0.249998 5.6951 0.979063 3.95688 1.70396L3.89008 1.73181C2.98582 2.10873 2.39111 2.35662 1.76987 2.93283C1.27893 3.38818 0.77375 4.1462 0.542442 4.77459C0.249558 5.57025 0.24974 6.33709 0.250018 7.51252L0.250031 9.81334C0.249902 12.0097 0.249827 13.2749 0.680516 14.5967C1.01641 15.6276 1.78172 16.9489 2.50875 17.7533C3.44075 18.7844 4.30473 19.28 5.79654 20.1358L5.85278 20.1681C6.5931 20.5928 7.34246 20.9807 8.03376 21.2645C8.70713 21.5409 9.39882 21.75 10 21.75C10.6013 21.75 11.2929 21.5409 11.9663 21.2645C12.6576 20.9807 13.407 20.5928 14.1473 20.1681L14.2035 20.1358C15.6953 19.28 16.5593 18.7844 17.4913 17.7533C18.2184 16.9489 18.9837 15.6276 19.3196 14.5967C19.7502 13.2749 19.7502 12.0097 19.75 9.81333L19.7501 7.51252C19.7503 6.33709 19.7505 5.57025 19.4576 4.77458C19.2263 4.1462 18.7211 3.38818 18.2302 2.93282C17.609 2.35661 17.0142 2.10872 16.11 1.7318L16.0432 1.70395C14.305 0.979062 12.0588 0.249998 10 0.249998ZM4.53424 3.08839C6.21945 2.3856 8.24349 1.75 10 1.75C11.7566 1.75 13.7806 2.3856 15.4658 3.08839C16.4479 3.49792 16.8013 3.65339 17.2101 4.03259C17.5279 4.3273 17.9003 4.88605 18.05 5.29275C18.2404 5.81017 18.25 6.30103 18.25 7.62361L18.25 9.69723C18.25 12.0412 18.2423 13.061 17.8934 14.132C17.6228 14.9625 16.9642 16.0995 16.3785 16.7475C15.6184 17.5884 14.953 17.9765 13.4008 18.867C12.6912 19.2741 12.0045 19.6274 11.3967 19.8769C10.771 20.1337 10.3006 20.25 10 20.25C9.69944 20.25 9.22908 20.1337 8.60338 19.8769C7.9956 19.6274 7.30885 19.2741 6.59923 18.867C5.04708 17.9765 4.38169 17.5884 3.62154 16.7475C3.03584 16.0995 2.37732 14.9625 2.10672 14.132C1.75778 13.061 1.75004 12.0412 1.75004 9.69723L1.75004 7.62361C1.75004 6.30103 1.75964 5.81017 1.9501 5.29275C2.09981 4.88605 2.47218 4.32731 2.78992 4.0326C3.19876 3.65339 3.55222 3.49793 4.53424 3.08839Z" fill="#27245D"/>
</svg>
