<svg width="18" height="22" viewBox="0 0 18 22" fill="none" xmlns="http://www.w3.org/2000/svg">
<path fill-rule="evenodd" clip-rule="evenodd" d="M9 0.25C6.37665 0.25 4.25 2.37665 4.25 5C4.25 7.62335 6.37665 9.75 9 9.75C11.6234 9.75 13.75 7.62335 13.75 5C13.75 2.37665 11.6234 0.25 9 0.25ZM5.75 5C5.75 3.20507 7.20507 1.75 9 1.75C10.7949 1.75 12.25 3.20507 12.25 5C12.25 6.79493 10.7949 8.25 9 8.25C7.20507 8.25 5.75 6.79493 5.75 5Z" fill="#27245D"/>
<path fill-rule="evenodd" clip-rule="evenodd" d="M5.8 12.25C2.73482 12.25 0.25 14.7348 0.25 17.8C0.25 19.9815 2.01848 21.75 4.2 21.75H13.8C15.9815 21.75 17.75 19.9815 17.75 17.8C17.75 14.7348 15.2652 12.25 12.2 12.25H5.8ZM1.75 17.8C1.75 15.5632 3.56325 13.75 5.8 13.75H12.2C14.4368 13.75 16.25 15.5632 16.25 17.8C16.25 19.1531 15.1531 20.25 13.8 20.25H4.2C2.8469 20.25 1.75 19.1531 1.75 17.8Z" fill="#27245D"/>
</svg>
