<svg width="22" height="22" viewBox="0 0 22 22" fill="none" xmlns="http://www.w3.org/2000/svg">
<path d="M6.25 1C6.25 0.585786 6.58579 0.25 7 0.25H15C15.4142 0.25 15.75 0.585786 15.75 1C15.75 1.41421 15.4142 1.75 15 1.75H7C6.58579 1.75 6.25 1.41421 6.25 1Z" fill="#27245D"/>
<path d="M5 3.25C4.58579 3.25 4.25 3.58579 4.25 4C4.25 4.41421 4.58579 4.75 5 4.75H17C17.4142 4.75 17.75 4.41421 17.75 4C17.75 3.58579 17.4142 3.25 17 3.25H5Z" fill="#27245D"/>
<path fill-rule="evenodd" clip-rule="evenodd" d="M11.8747 11.0151C11.4953 10.7622 11.1683 10.5441 10.8939 10.3954C10.6193 10.2466 10.2799 10.0987 9.8957 10.1216C9.38491 10.1521 8.91306 10.4047 8.60436 10.8127C8.37218 11.1196 8.30694 11.4841 8.27844 11.7952C8.24997 12.1059 8.24998 12.499 8.25 12.9549V15.0451C8.24998 15.501 8.24997 15.8941 8.27844 16.2048C8.30694 16.5159 8.37218 16.8804 8.60436 17.1873C8.91306 17.5953 9.38491 17.8479 9.8957 17.8784C10.2799 17.9013 10.6193 17.7534 10.8939 17.6046C11.1683 17.4559 11.4953 17.2378 11.8747 16.9849L13.446 15.9374C13.7568 15.7302 14.0313 15.5472 14.2396 15.3793C14.4551 15.2055 14.6838 14.9838 14.8137 14.6704C14.9917 14.2412 14.9917 13.7588 14.8137 13.3296C14.6838 13.0162 14.4551 12.7945 14.2396 12.6207C14.0313 12.4528 13.7568 12.2698 13.446 12.0626L11.8747 11.0151ZM9.81003 11.706C9.85076 11.6584 9.90794 11.6278 9.97016 11.6203C9.98783 11.6251 10.0498 11.644 10.1792 11.7142C10.3857 11.8261 10.6551 12.0048 11.0715 12.2824L12.5871 13.2928C12.9329 13.5233 13.1493 13.6685 13.2979 13.7884C13.3895 13.8622 13.4228 13.9017 13.4317 13.9131C13.4524 13.9692 13.4524 14.0308 13.4317 14.0869C13.4228 14.0983 13.3895 14.1378 13.2979 14.2116C13.1493 14.3315 12.9329 14.4767 12.5871 14.7072L11.0715 15.7176C10.6551 15.9952 10.3857 16.1739 10.1792 16.2858C10.0498 16.356 9.98783 16.3749 9.97016 16.3797C9.90794 16.3722 9.85076 16.3416 9.81003 16.294C9.80417 16.2767 9.78562 16.2146 9.77218 16.068C9.75075 15.8341 9.75 15.5109 9.75 15.0104V12.9896C9.75 12.4891 9.75075 12.1659 9.77218 11.932C9.78562 11.7854 9.80417 11.7233 9.81003 11.706Z" fill="#27245D"/>
<path fill-rule="evenodd" clip-rule="evenodd" d="M7.367 6.25C6.27487 6.24999 5.40935 6.24999 4.71173 6.30699C3.99835 6.36527 3.39472 6.48688 2.84355 6.76772C1.94978 7.22312 1.22312 7.94978 0.76772 8.84354C0.486882 9.39472 0.365274 9.99834 0.306988 10.7117C0.24999 11.4094 0.249995 12.2748 0.25 13.367V14.633C0.249995 15.7251 0.24999 16.5906 0.306988 17.2883C0.365274 18.0017 0.486882 18.6053 0.76772 19.1565C1.22312 20.0502 1.94978 20.7769 2.84355 21.2323C3.39472 21.5131 3.99835 21.6347 4.71173 21.693C5.40934 21.75 6.27481 21.75 7.36691 21.75H14.633C15.7251 21.75 16.5907 21.75 17.2883 21.693C18.0017 21.6347 18.6053 21.5131 19.1565 21.2323C20.0502 20.7769 20.7769 20.0502 21.2323 19.1565C21.5131 18.6053 21.6347 18.0017 21.693 17.2883C21.75 16.5906 21.75 15.7252 21.75 14.633V13.367C21.75 12.2748 21.75 11.4094 21.693 10.7117C21.6347 9.99834 21.5131 9.39472 21.2323 8.84354C20.7769 7.94978 20.0502 7.22312 19.1565 6.76772C18.6053 6.48688 18.0017 6.36527 17.2883 6.30699C16.5907 6.24999 15.7252 6.24999 14.633 6.25H7.367ZM3.52453 8.10423C3.829 7.94909 4.21325 7.85271 4.83388 7.80201C5.46327 7.75058 6.26752 7.75 7.4 7.75H14.6C15.7325 7.75 16.5367 7.75058 17.1661 7.80201C17.7867 7.85271 18.171 7.94909 18.4755 8.10423C19.087 8.41582 19.5842 8.913 19.8958 9.52453C20.0509 9.829 20.1473 10.2133 20.198 10.8339C20.2494 11.4633 20.25 12.2675 20.25 13.4V14.6C20.25 15.7325 20.2494 16.5367 20.198 17.1661C20.1473 17.7867 20.0509 18.171 19.8958 18.4755C19.5842 19.087 19.087 19.5842 18.4755 19.8958C18.171 20.0509 17.7867 20.1473 17.1661 20.198C16.5367 20.2494 15.7325 20.25 14.6 20.25H7.4C6.26752 20.25 5.46327 20.2494 4.83388 20.198C4.21325 20.1473 3.829 20.0509 3.52453 19.8958C2.913 19.5842 2.41582 19.087 2.10423 18.4755C1.94909 18.171 1.85271 17.7867 1.80201 17.1661C1.75058 16.5367 1.75 15.7325 1.75 14.6V13.4C1.75 12.2675 1.75058 11.4633 1.80201 10.8339C1.85271 10.2133 1.94909 9.829 2.10423 9.52453C2.41582 8.913 2.913 8.41582 3.52453 8.10423Z" fill="#27245D"/>
</svg>
