<svg width="16" height="16" viewBox="0 0 16 16" fill="none" xmlns="http://www.w3.org/2000/svg">
<path fill-rule="evenodd" clip-rule="evenodd" d="M11.4601 10.3188L15.764 14.6227C15.9153 14.7741 16.0002 14.9793 16.0002 15.1933C16.0001 15.4074 15.915 15.6126 15.7636 15.7639C15.6122 15.9151 15.407 16.0001 15.1929 16C14.9789 15.9999 14.7737 15.9148 14.6224 15.7635L10.3185 11.4595C9.03193 12.4561 7.41401 12.925 5.79393 12.771C4.17384 12.617 2.67328 11.8516 1.5975 10.6305C0.521726 9.40935 -0.0484552 7.82428 0.00295285 6.1977C0.0543609 4.57112 0.723496 3.02522 1.87424 1.87448C3.02497 0.72374 4.57088 0.054605 6.19745 0.00319699C7.82403 -0.048211 9.4091 0.52197 10.6302 1.59775C11.8513 2.67352 12.6167 4.17409 12.7708 5.79417C12.9248 7.41426 12.4558 9.03217 11.4593 10.3188H11.4601ZM6.40021 11.1996C7.67322 11.1996 8.8941 10.6939 9.79425 9.7937C10.6944 8.89354 11.2001 7.67267 11.2001 6.39966C11.2001 5.12665 10.6944 3.90577 9.79425 3.00562C8.8941 2.10546 7.67322 1.59976 6.40021 1.59976C5.1272 1.59976 3.90633 2.10546 3.00617 3.00562C2.10602 3.90577 1.60032 5.12665 1.60032 6.39966C1.60032 7.67267 2.10602 8.89354 3.00617 9.7937C3.90633 10.6939 5.1272 11.1996 6.40021 11.1996Z" fill="#4754F0"/>
</svg>
