<svg width="16" height="18" viewBox="0 0 16 18" fill="none" xmlns="http://www.w3.org/2000/svg">
<path d="M8.59528 0.699707C9.22296 0.699707 9.79127 1.04831 10.1051 1.56291C10.2578 1.81191 10.3596 2.119 10.3341 2.4427C10.3172 2.6917 10.3935 2.9407 10.5292 3.1731C10.9618 3.8786 11.9203 4.1442 12.6667 3.7458C13.5065 3.2644 14.5668 3.5549 15.0503 4.3766L15.6186 5.356C16.1105 6.1777 15.8391 7.2318 14.9909 7.7049C14.2699 8.1282 14.0154 9.06609 14.448 9.77989C14.5837 10.004 14.7364 10.1949 14.9739 10.3111C15.2708 10.4688 15.4998 10.7178 15.661 10.9668C15.9748 11.4814 15.9494 12.1122 15.644 12.6683L15.0503 13.6643C14.7364 14.1955 14.1511 14.5275 13.5489 14.5275C13.252 14.5275 12.9212 14.4445 12.6498 14.2785C12.4292 14.1374 12.1748 14.0876 11.9033 14.0876C11.0636 14.0876 10.3596 14.7765 10.3341 15.5982C10.3341 16.5527 9.55377 17.2997 8.57831 17.2997H7.42473C6.44079 17.2997 5.66042 16.5527 5.66042 15.5982C5.64346 14.7765 4.93943 14.0876 4.09969 14.0876C3.81978 14.0876 3.56531 14.1374 3.35325 14.2785C3.08182 14.4445 2.74253 14.5275 2.45414 14.5275C1.84342 14.5275 1.25814 14.1955 0.9443 13.6643L0.359026 12.6683C0.0451837 12.1288 0.0282192 11.4814 0.342062 10.9668C0.477778 10.7178 0.732245 10.4688 1.02064 10.3111C1.25814 10.1949 1.41082 10.004 1.55502 9.77989C1.97913 9.06609 1.72467 8.1282 1.00368 7.7049C0.163935 7.2318 -0.107497 6.1777 0.375991 5.356L0.9443 4.3766C1.43627 3.5549 2.48807 3.2644 3.33629 3.7458C4.07424 4.1442 5.03274 3.8786 5.46533 3.1731C5.60105 2.9407 5.67739 2.6917 5.66042 2.4427C5.64346 2.119 5.73676 1.81191 5.89792 1.56291C6.21177 1.04831 6.78008 0.716307 7.39928 0.699707H8.59528ZM8.01 6.6591C6.67829 6.6591 5.60105 7.7049 5.60105 9.00799C5.60105 10.3111 6.67829 11.3486 8.01 11.3486C9.34171 11.3486 10.3935 10.3111 10.3935 9.00799C10.3935 7.7049 9.34171 6.6591 8.01 6.6591Z" fill="#4754F0"/>
</svg>
