<svg width="22" height="22" viewBox="0 0 22 22" fill="none" xmlns="http://www.w3.org/2000/svg">
<path fill-rule="evenodd" clip-rule="evenodd" d="M10.5661 0.25H10.6H11.4H11.4339H11.434C13.0854 0.249996 14.3708 0.249993 15.4019 0.334236C16.4488 0.419771 17.2994 0.595875 18.0644 0.985706C19.3345 1.63285 20.3671 2.66547 21.0143 3.93556C21.4041 4.70065 21.5802 5.55124 21.6658 6.59814C21.75 7.62918 21.75 8.91451 21.75 10.5658V10.5659V10.5659V10.566V10.566V10.6V14.1716V14.1952V14.1952V14.1953V14.1953V14.1953C21.75 14.5101 21.75 14.6976 21.7401 14.8805C21.6567 16.4161 21.0515 17.8772 20.0246 19.022C19.9023 19.1584 19.7696 19.291 19.547 19.5137L19.5303 19.5303L19.5137 19.547C19.291 19.7696 19.1584 19.9023 19.022 20.0246C17.8772 21.0515 16.4161 21.6567 14.8805 21.7401C14.6976 21.75 14.5101 21.75 14.1953 21.75H14.1953H14.1953H14.1952H14.1952H14.1716H10.6H10.566H10.566H10.5659H10.5659H10.5658C8.91451 21.75 7.62918 21.75 6.59814 21.6658C5.55124 21.5802 4.70065 21.4041 3.93556 21.0143C2.66547 20.3671 1.63285 19.3345 0.985706 18.0644C0.595875 17.2994 0.419771 16.4488 0.334236 15.4019C0.249993 14.3708 0.249996 13.0854 0.25 11.434V11.4339V11.4V10.6V10.5661V10.566C0.249996 8.91462 0.249993 7.62922 0.334236 6.59814C0.419771 5.55124 0.595875 4.70065 0.985706 3.93556C1.63285 2.66547 2.66547 1.63285 3.93556 0.985706C4.70065 0.595875 5.55124 0.419771 6.59814 0.334236C7.62922 0.249993 8.91462 0.249996 10.566 0.25H10.5661ZM6.72029 1.82925C5.76615 1.90721 5.13493 2.05809 4.61655 2.32222C3.6287 2.82555 2.82555 3.6287 2.32222 4.61655C2.05809 5.13493 1.90721 5.76615 1.82925 6.72029C1.75058 7.68317 1.75 8.90747 1.75 10.6V11.4C1.75 13.0925 1.75058 14.3168 1.82925 15.2797C1.90721 16.2338 2.05809 16.8651 2.32222 17.3834C2.82555 18.3713 3.6287 19.1744 4.61655 19.6778C5.13493 19.9419 5.76615 20.0928 6.72029 20.1707C7.68317 20.2494 8.90747 20.25 10.6 20.25H14.1716L14.25 20.25V18.2V18.1695C14.25 17.6354 14.25 17.1895 14.2797 16.8253C14.3108 16.4454 14.3779 16.0888 14.5497 15.7515C14.8134 15.2341 15.2341 14.8134 15.7515 14.5497C16.0888 14.3779 16.4454 14.3107 16.8253 14.2797C17.1896 14.25 17.6354 14.25 18.1695 14.25H18.1696H18.2H20.25L20.25 14.1716V10.6C20.25 8.90747 20.2494 7.68317 20.1707 6.72029C20.0928 5.76615 19.9419 5.13493 19.6778 4.61655C19.1744 3.6287 18.3713 2.82555 17.3834 2.32222C16.8651 2.05809 16.2338 1.90721 15.2797 1.82925C14.3168 1.75058 13.0925 1.75 11.4 1.75H10.6C8.90747 1.75 7.68317 1.75058 6.72029 1.82925ZM18.0204 18.908C17.3703 19.4912 16.5891 19.8995 15.75 20.1026V18.2C15.75 17.6275 15.7506 17.2433 15.7748 16.9474C15.7982 16.6603 15.8401 16.523 15.8862 16.4325C16.0061 16.1973 16.1973 16.0061 16.4325 15.8862C16.5231 15.8401 16.6604 15.7982 16.9475 15.7747C17.2434 15.7506 17.6276 15.75 18.2 15.75H20.1026C19.8995 16.5891 19.4912 17.3703 18.908 18.0204C18.8161 18.1228 18.7139 18.2255 18.4697 18.4697C18.2255 18.7139 18.1228 18.8161 18.0204 18.908ZM6 5.25C5.58579 5.25 5.25 5.58579 5.25 6C5.25 6.41421 5.58579 6.75 6 6.75H14C14.4142 6.75 14.75 6.41421 14.75 6C14.75 5.58579 14.4142 5.25 14 5.25H6ZM5.25 10C5.25 9.58579 5.58579 9.25 6 9.25H12C12.4142 9.25 12.75 9.58579 12.75 10C12.75 10.4142 12.4142 10.75 12 10.75H6C5.58579 10.75 5.25 10.4142 5.25 10ZM6 13.25C5.58579 13.25 5.25 13.5858 5.25 14C5.25 14.4142 5.58579 14.75 6 14.75H8C8.41421 14.75 8.75 14.4142 8.75 14C8.75 13.5858 8.41421 13.25 8 13.25H6Z" fill="#27245D"/>
</svg>
