<svg width="20" height="20" viewBox="0 0 20 20" fill="none" xmlns="http://www.w3.org/2000/svg">
<path d="M10.0001 19.375C8.45818 19.3753 6.94003 18.9954 5.58009 18.2688C4.22016 17.5421 3.06043 16.4913 2.20366 15.2094C1.34688 13.9275 0.819511 12.4541 0.668263 10.9196C0.517015 9.38519 0.746562 7.83714 1.33657 6.41261C1.92657 4.98809 2.85882 3.73108 4.05072 2.75294C5.24261 1.77481 6.65736 1.10574 8.16963 0.805029C9.68189 0.504315 11.245 0.581234 12.7204 1.02897C14.1958 1.47671 15.5381 2.28144 16.6282 3.37188C16.7331 3.47639 16.8163 3.60058 16.8731 3.73733C16.9298 3.87408 16.9591 4.02068 16.9591 4.16875C16.9591 4.31682 16.9298 4.46343 16.8731 4.60017C16.8163 4.73692 16.7331 4.86111 16.6282 4.96563C16.4147 5.17295 16.1289 5.28892 15.8313 5.28892C15.5337 5.28892 15.2479 5.17295 15.0344 4.96563C14.3761 4.30043 13.5918 3.77298 12.7275 3.41404C11.8631 3.05511 10.936 2.87186 10.0001 2.875C8.63914 2.87596 7.30698 3.26664 6.16112 4.00085C5.01525 4.73506 4.10363 5.78208 3.53407 7.01806C2.9645 8.25405 2.76083 9.6273 2.94713 10.9754C3.13344 12.3235 3.70193 13.59 4.58536 14.6252C5.4688 15.6604 6.63022 16.4209 7.93227 16.8168C9.23431 17.2127 10.6225 17.2275 11.9327 16.8593C13.2428 16.4911 14.4201 15.7554 15.3253 14.7392C16.2305 13.723 16.8258 12.4688 17.0407 11.125H10.0001C9.70168 11.125 9.41553 11.0065 9.20456 10.7955C8.99358 10.5845 8.87505 10.2984 8.87505 10C8.87505 9.70163 8.99358 9.41548 9.20456 9.20451C9.41553 8.99353 9.70168 8.875 10.0001 8.875H18.2501C18.5484 8.875 18.8346 8.99353 19.0455 9.20451C19.2565 9.41548 19.3751 9.70163 19.3751 10C19.3701 12.4849 18.3808 14.8666 16.6237 16.6237C14.8666 18.3807 12.4849 19.37 10.0001 19.375Z" fill="black"/>
</svg>
