<svg width="24" height="24" viewBox="0 0 24 24" fill="none" xmlns="http://www.w3.org/2000/svg">
<path fill-rule="evenodd" clip-rule="evenodd" d="M21 12C21 16.9706 16.9706 21 12 21C10.0525 21 8.24942 20.3814 6.77661 19.33L3.5 20.5L4.51555 17C3.55827 15.5699 3 13.8501 3 12C3 7.02944 7.02944 3 12 3C16.9706 3 21 7.02944 21 12ZM16.5127 13.9863C16.6924 14.0721 16.8162 14.1312 16.864 14.2139V14.23C16.9312 14.4043 16.9546 14.5926 16.9323 14.7782C16.91 14.9639 16.8425 15.1411 16.736 15.2941C14.144 19.9054 4.008 12.3355 8.168 7.9177C8.56 7.48237 9.568 7.57105 9.768 8.03863C9.82446 8.17064 9.90006 8.35663 9.98218 8.55867C10.1909 9.07228 10.4419 9.68966 10.528 9.78801C10.5623 9.85102 10.5803 9.92172 10.5803 9.99359C10.5803 10.0655 10.5623 10.1362 10.528 10.1992C10.468 10.3201 10.4424 10.3434 10.336 10.4402C10.2721 10.4984 10.1791 10.583 10.032 10.7312C10.0274 10.7362 10.0228 10.7412 10.0181 10.7463C9.91653 10.8557 9.798 10.9834 9.928 11.2069C10.7159 12.4852 11.871 13.4918 13.24 14.093C13.48 14.2139 13.616 14.1897 13.752 14.0365C13.888 13.8834 14.136 13.5367 14.288 13.2949C14.44 13.053 14.608 13.0933 14.816 13.1739C14.9904 13.2415 15.8338 13.6547 16.2387 13.853C16.3167 13.8913 16.3785 13.9215 16.416 13.9398C16.4498 13.9562 16.4821 13.9717 16.5127 13.9863Z" fill="#16996B"/>
</svg>
